Taken.2.2012.DVDRIP.XVID.AC3.5.1-HS Greek Subs
 
http://www.imdb.com/title/tt1397280/

Source -- retail ( HS )

File size : 1.36 GiB
Duration : 1h 32mn
Overall bit rate : 2 095 Kbps

Video
ID : 0

Codec ID : XVID
Codec ID/Hint : XviD
Duration : 1h 32mn
Bit rate : 1 704 Kbps
Width : 720 pixels
Height : 304 pixels
Display aspect ratio : 2.35:1
Frame rate : 23.976 fps
Color space : YUV
Chroma subsampling : 4:2:0
Bit depth : 8 bits
Scan type : Progressive
Compression mode : Lossy
Bits/(Pixel*Frame) : 0.325
Stream size : 1.10 GiB (81%)
Writing library : XviD 64

Audio
ID : 1
Format : AC-3
Format/Info : Audio Coding 3
Mode extension : CM (complete main)
Format settings, Endianness : Big
Codec ID : 2000
Duration : 1h 32mn
Bit rate mode : Constant
Bit rate : 384 Kbps
Channel(s) : 6 channels
Channel positions : Front: L C R, Side: L R, LFE
Sampling rate : 44.1 KHz
Bit depth : 16 bits
Compression mode : Lossy
Stream size : 253 MiB (18%)

Genre: Action, Crime, Drama

Actors: Liam Neeson, Famke Janssen, Maggie Grace

Plot: In Istanbul, retired CIA operative Bryan Mills and his wife are taken hostage by the father of a kidnapper Mills killed while rescuing his daughter.
